<svg xmlns="http://www.w3.org/2000/svg" xmlns:xlink="http://www.w3.org/1999/xlink" width="109" height="120" viewBox="0 0 109 120">
    <defs>
        <path id="wrgrvu1f1a" d="M0 0L109 0 109 120 0 120z"/>
    </defs>
    <g fill="none" fill-rule="evenodd">
        <g>
            <g transform="translate(-678.000000, -53.000000) translate(678.000000, 53.000000)">
                <mask id="fc7h21cbbb" fill="#fff">
                    <use xlink:href="#wrgrvu1f1a"/>
                </mask>
                <path fill="#000" d="M51.498 94.021h-23.26V70.682h23.26c8.44 0 13.479 4.362 13.479 11.67 0 7.307-5.039 11.67-13.479 11.67zM-1.897 120h57.664C79.832 120 96 105.868 96 84.835c0-11.735-6.459-22.19-16.855-27.286l-1.55-.761 1.407-.997c8.066-5.721 11.661-12.082 11.661-20.624C90.663 14.132 74.138 0 49.542 0h-33.59v25.624h30.744c8.106 0 12.944 4.364 12.944 11.672 0 8.402-6.543 9.534-12.944 9.534L-13 46.851v23.831h11.103V120z" mask="url(#fc7h21cbbb)"/>
            </g>
        </g>
    </g>
</svg>
