<svg xmlns="http://www.w3.org/2000/svg" width="49" height="48" viewBox="0 0 49 48">
    <g fill="none" fill-rule="evenodd">
        <g fill="#000" fill-rule="nonzero">
            <g>
                <g>
                    <g>
                        <path d="M23.931 11.795c-6.79 0-12.266 5.478-12.266 12.269 0 6.79 5.477 12.268 12.266 12.268 6.79 0 12.266-5.477 12.266-12.268S30.72 11.795 23.93 11.795zm0 20.245c-4.388 0-7.974-3.577-7.974-7.976 0-4.4 3.576-7.976 7.974-7.976s7.974 3.577 7.974 7.976-3.587 7.976-7.974 7.976zm15.628-20.747c0 1.591-1.28 2.862-2.86 2.862-1.591 0-2.862-1.281-2.862-2.862 0-1.58 1.281-2.861 2.861-2.861 1.58 0 2.861 1.281 2.861 2.861zm8.124 2.905c-.181-3.834-1.057-7.229-3.864-10.027C41.022 1.374 37.627.498 33.795.306c-3.95-.224-15.789-.224-19.739 0C10.235.488 6.84 1.363 4.033 4.161 1.225 6.958.36 10.354.168 14.187c-.224 3.95-.224 15.792 0 19.743.182 3.833 1.057 7.228 3.865 10.026 2.807 2.797 6.191 3.673 10.023 3.865 3.95.224 15.789.224 19.739 0 3.832-.181 7.227-1.057 10.024-3.865 2.797-2.798 3.672-6.193 3.864-10.026.224-3.951.224-15.782 0-19.732zm-5.103 23.97c-.832 2.093-2.444 3.706-4.547 4.55-3.15 1.249-10.622.96-14.102.96-3.48 0-10.963.278-14.102-.96-2.092-.834-3.704-2.446-4.547-4.55-1.25-3.15-.961-10.623-.961-14.104s-.278-10.966.96-14.105C6.115 7.866 7.727 6.254 9.83 5.41c3.15-1.25 10.622-.96 14.102-.96 3.48 0 10.963-.279 14.102.96 2.092.833 3.704 2.445 4.547 4.549 1.25 3.15.961 10.624.961 14.105 0 3.48.288 10.965-.96 14.105z" transform="translate(-755.000000, -2370.000000) translate(632.000000, 2370.000000) translate(67.000000, 0.000000) translate(56.250000, 0.000000)"/>
                    </g>
                </g>
            </g>
        </g>
    </g>
</svg>
